<svg xmlns="http://www.w3.org/2000/svg" xmlns:xlink="http://www.w3.org/1999/xlink" width="500" zoomAndPan="magnify" viewBox="0 0 375 374.999991" height="500" preserveAspectRatio="xMidYMid meet" version="1.0"><defs><g/><clipPath id="9d36f41b87"><path d="M 68.746094 72.921875 L 298.667969 72.921875 L 298.667969 302.84375 L 68.746094 302.84375 Z M 68.746094 72.921875 " clip-rule="nonzero"/></clipPath><clipPath id="8cc7a53ec1"><path d="M 183.707031 72.921875 C 120.214844 72.921875 68.746094 124.390625 68.746094 187.882812 C 68.746094 251.375 120.214844 302.84375 183.707031 302.84375 C 247.199219 302.84375 298.667969 251.375 298.667969 187.882812 C 298.667969 124.390625 247.199219 72.921875 183.707031 72.921875 Z M 183.707031 72.921875 " clip-rule="nonzero"/></clipPath></defs><g clip-path="url(#9d36f41b87)"><g clip-path="url(#8cc7a53ec1)"><path fill="#000000" d="M 68.746094 72.921875 L 298.667969 72.921875 L 298.667969 302.84375 L 68.746094 302.84375 Z M 68.746094 72.921875 " fill-opacity="1" fill-rule="nonzero"/></g></g><g fill="#ffffff" fill-opacity="1"><g transform="translate(161.692009, 268.16457)"><g><path d="M 18.890625 -42.234375 C 13.390625 -35.035156 10.640625 -27.253906 10.640625 -18.890625 C 10.640625 -8.941406 14.820312 -1.21875 23.1875 4.28125 C 28.050781 7.5625 33.578125 9.203125 39.765625 9.203125 C 45.960938 9.203125 51.335938 7.988281 55.890625 5.5625 C 64.472656 1.113281 69.289062 -6.347656 70.34375 -16.828125 C 70.445312 -17.566406 70.5 -18.3125 70.5 -19.0625 C 70.5 -22.976562 69.414062 -27.210938 67.25 -31.765625 C 65.082031 -36.316406 61.5625 -40.492188 56.6875 -44.296875 L 28.109375 -66.859375 C 21.859375 -71.722656 18.734375 -78.019531 18.734375 -85.75 C 18.734375 -93.476562 21.222656 -100.015625 26.203125 -105.359375 C 31.179688 -110.703125 37.90625 -113.375 46.375 -113.375 C 50.601562 -113.375 55.207031 -112.847656 60.1875 -111.796875 L 66.53125 -111.796875 L 66.859375 -92.265625 L 65.265625 -92.265625 C 65.160156 -97.347656 63.332031 -101.34375 59.78125 -104.25 C 56.238281 -107.15625 51.789062 -108.609375 46.4375 -108.609375 C 41.09375 -108.609375 36.617188 -106.835938 33.015625 -103.296875 C 29.421875 -99.753906 27.625 -95.203125 27.625 -89.640625 C 27.625 -84.078125 29.957031 -79.445312 34.625 -75.75 L 64 -52.5625 C 75.644531 -43.351562 81.46875 -32.238281 81.46875 -19.21875 C 81.46875 -9.476562 77.601562 -1.113281 69.875 5.875 C 63.195312 11.90625 54.300781 14.921875 43.1875 14.921875 C 36.414062 14.921875 30.382812 13.648438 25.09375 11.109375 C 15.132812 6.453125 9.148438 -1.484375 7.140625 -12.703125 C 6.828125 -14.398438 6.671875 -16.546875 6.671875 -19.140625 C 6.671875 -21.734375 7.410156 -25.273438 8.890625 -29.765625 C 10.367188 -34.265625 13.226562 -38.789062 17.46875 -43.34375 Z M 18.890625 -42.234375 "/></g></g></g><g fill="#ffffff" fill-opacity="1"><g transform="translate(146.433981, 105.128043)"><g><path d="M 2.765625 -0.96875 C 1.992188 -0.664062 1.320312 -0.609375 0.75 -0.796875 C 0.1875 -0.984375 -0.257812 -1.394531 -0.59375 -2.03125 L 0.484375 -2.640625 C 0.910156 -1.898438 1.5625 -1.695312 2.4375 -2.03125 C 2.820312 -2.175781 3.09375 -2.363281 3.25 -2.59375 C 3.40625 -2.832031 3.425781 -3.085938 3.3125 -3.359375 C 3.21875 -3.609375 3.039062 -3.753906 2.78125 -3.796875 C 2.519531 -3.835938 2.128906 -3.828125 1.609375 -3.765625 C 1.140625 -3.710938 0.71875 -3.695312 0.34375 -3.71875 C -0.0195312 -3.75 -0.332031 -3.851562 -0.59375 -4.03125 C -0.863281 -4.207031 -1.078125 -4.5 -1.234375 -4.90625 C -1.378906 -5.3125 -1.40625 -5.707031 -1.3125 -6.09375 C -1.226562 -6.476562 -1.039062 -6.828125 -0.75 -7.140625 C -0.46875 -7.453125 -0.0976562 -7.695312 0.359375 -7.875 C 0.984375 -8.113281 1.550781 -8.144531 2.0625 -7.96875 C 2.582031 -7.800781 2.984375 -7.441406 3.265625 -6.890625 L 2.28125 -6.296875 C 1.90625 -6.898438 1.382812 -7.070312 0.71875 -6.8125 C 0.394531 -6.695312 0.160156 -6.515625 0.015625 -6.265625 C -0.117188 -6.015625 -0.132812 -5.753906 -0.03125 -5.484375 C 0.0703125 -5.210938 0.25 -5.039062 0.5 -4.96875 C 0.757812 -4.894531 1.15625 -4.894531 1.6875 -4.96875 C 2.15625 -5.03125 2.566406 -5.054688 2.921875 -5.046875 C 3.285156 -5.035156 3.597656 -4.945312 3.859375 -4.78125 C 4.117188 -4.613281 4.332031 -4.316406 4.5 -3.890625 C 4.644531 -3.515625 4.671875 -3.132812 4.578125 -2.75 C 4.484375 -2.375 4.28125 -2.03125 3.96875 -1.71875 C 3.664062 -1.40625 3.265625 -1.15625 2.765625 -0.96875 Z M 2.765625 -0.96875 "/></g></g></g><g fill="#ffffff" fill-opacity="1"><g transform="translate(158.781155, 100.889648)"><g><path d="M -0.09375 0.015625 L 1.28125 -7.59375 L 2.359375 -7.828125 L 6.78125 -1.546875 L 5.484375 -1.25 L 4.5 -2.6875 L 1.484375 -2 L 1.1875 -0.265625 Z M 1.65625 -3.171875 L 3.84375 -3.671875 L 2.15625 -6.140625 Z M 1.65625 -3.171875 "/></g></g></g><g fill="#ffffff" fill-opacity="1"><g transform="translate(172.589968, 98.292166)"><g><path d="M 4.890625 -7.484375 L 6.140625 -7.5625 L 6.640625 -0.46875 L 5.5 -0.390625 L 1.625 -5.078125 L 1.984375 -0.140625 L 0.734375 -0.046875 L 0.234375 -7.140625 L 1.375 -7.234375 L 5.234375 -2.546875 Z M 4.890625 -7.484375 "/></g></g></g><g fill="#ffffff" fill-opacity="1"><g transform="translate(187.162083, 97.84785)"><g><path d="M 1.90625 0.234375 C 1.375 0.191406 0.921875 0.03125 0.546875 -0.25 C 0.179688 -0.539062 -0.046875 -0.925781 -0.140625 -1.40625 L 0.953125 -1.8125 C 1.046875 -1.539062 1.171875 -1.328125 1.328125 -1.171875 C 1.492188 -1.015625 1.710938 -0.925781 1.984375 -0.90625 C 2.578125 -0.875 2.898438 -1.226562 2.953125 -1.96875 L 3.296875 -6.90625 L 4.59375 -6.8125 L 4.25 -2 C 4.195312 -1.238281 3.972656 -0.664062 3.578125 -0.28125 C 3.179688 0.101562 2.625 0.273438 1.90625 0.234375 Z M 1.90625 0.234375 "/></g></g></g><g fill="#ffffff" fill-opacity="1"><g transform="translate(199.106137, 99.111758)"><g><path d="M -0.09375 -0.015625 L 4.34375 -6.34375 L 5.40625 -6.125 L 6.796875 1.4375 L 5.5 1.15625 L 5.21875 -0.5625 L 2.1875 -1.203125 L 1.1875 0.25 Z M 2.84375 -2.171875 L 5.03125 -1.71875 L 4.53125 -4.671875 Z M 2.84375 -2.171875 "/></g></g></g><g fill="#ffffff" fill-opacity="1"><g transform="translate(212.747798, 102.56349)"><g><path d="M 8.171875 -4.5625 L 4.484375 -1.734375 L 3.390625 1.25 L 2.15625 0.796875 L 3.25 -2.171875 L 2.203125 -6.765625 L 3.59375 -6.25 L 4.296875 -3.015625 L 6.890625 -5.03125 Z M 8.171875 -4.5625 "/></g></g></g><g fill="#ffffff" fill-opacity="1"><g transform="translate(224.869214, 107.60266)"><g/></g></g><g fill="#ffffff" fill-opacity="1"><g transform="translate(233.333143, 112.310661)"><g><path d="M 0.609375 0.40625 L 4.609375 -5.46875 L 6.5625 -4.140625 C 7.3125 -3.628906 7.796875 -3.097656 8.015625 -2.546875 C 8.234375 -2.003906 8.160156 -1.472656 7.796875 -0.953125 C 7.609375 -0.660156 7.363281 -0.445312 7.0625 -0.3125 C 6.769531 -0.1875 6.453125 -0.148438 6.109375 -0.203125 C 6.304688 0.078125 6.40625 0.390625 6.40625 0.734375 C 6.414062 1.085938 6.316406 1.414062 6.109375 1.71875 C 5.765625 2.21875 5.296875 2.488281 4.703125 2.53125 C 4.117188 2.582031 3.492188 2.378906 2.828125 1.921875 Z M 5.984375 -3.25 L 5.0625 -3.875 L 3.96875 -2.265625 L 4.875 -1.65625 C 5.289062 -1.363281 5.644531 -1.21875 5.9375 -1.21875 C 6.226562 -1.21875 6.472656 -1.359375 6.671875 -1.640625 C 6.847656 -1.910156 6.882812 -2.171875 6.78125 -2.421875 C 6.675781 -2.679688 6.410156 -2.957031 5.984375 -3.25 Z M 2.25 0.25 L 3.390625 1.03125 C 3.734375 1.257812 4.050781 1.375 4.34375 1.375 C 4.632812 1.375 4.875 1.234375 5.0625 0.953125 C 5.425781 0.421875 5.234375 -0.0976562 4.484375 -0.609375 L 3.359375 -1.375 Z M 2.25 0.25 "/></g></g></g><g fill="#ffffff" fill-opacity="1"><g transform="translate(244.21635, 120.326771)"><g><path d="M -0.0625 -0.0625 L 6.96875 -3.25 L 7.78125 -2.5 L 5.109375 4.703125 L 4.140625 3.8125 L 4.765625 2.171875 L 2.484375 0.078125 L 0.890625 0.828125 Z M 3.5625 -0.421875 L 5.203125 1.09375 L 6.28125 -1.71875 Z M 3.5625 -0.421875 "/></g></g></g><g fill="#ffffff" fill-opacity="1"><g transform="translate(254.18711, 130.256355)"><g><path d="M 1.78125 2.34375 C 1.25 1.695312 0.984375 1.070312 0.984375 0.46875 C 0.984375 -0.125 1.242188 -0.675781 1.765625 -1.1875 L 2.671875 -0.359375 C 2.078125 0.273438 2.078125 0.957031 2.671875 1.6875 C 2.929688 2 3.195312 2.191406 3.46875 2.265625 C 3.738281 2.335938 3.988281 2.285156 4.21875 2.109375 C 4.425781 1.929688 4.507812 1.710938 4.46875 1.453125 C 4.4375 1.191406 4.304688 0.828125 4.078125 0.359375 C 3.867188 -0.078125 3.722656 -0.472656 3.640625 -0.828125 C 3.554688 -1.179688 3.554688 -1.507812 3.640625 -1.8125 C 3.734375 -2.125 3.953125 -2.414062 4.296875 -2.6875 C 4.628906 -2.957031 4.992188 -3.109375 5.390625 -3.140625 C 5.785156 -3.179688 6.171875 -3.113281 6.546875 -2.9375 C 6.929688 -2.757812 7.28125 -2.476562 7.59375 -2.09375 C 8.007812 -1.570312 8.210938 -1.039062 8.203125 -0.5 C 8.203125 0.0390625 7.988281 0.53125 7.5625 0.96875 L 6.6875 0.21875 C 7.144531 -0.332031 7.148438 -0.890625 6.703125 -1.453125 C 6.484375 -1.710938 6.234375 -1.867188 5.953125 -1.921875 C 5.671875 -1.984375 5.414062 -1.921875 5.1875 -1.734375 C 4.96875 -1.546875 4.863281 -1.316406 4.875 -1.046875 C 4.882812 -0.785156 5.007812 -0.414062 5.25 0.0625 C 5.445312 0.488281 5.597656 0.875 5.703125 1.21875 C 5.804688 1.570312 5.816406 1.894531 5.734375 2.1875 C 5.648438 2.488281 5.4375 2.785156 5.09375 3.078125 C 4.78125 3.328125 4.425781 3.460938 4.03125 3.484375 C 3.644531 3.515625 3.253906 3.429688 2.859375 3.234375 C 2.472656 3.046875 2.113281 2.75 1.78125 2.34375 Z M 1.78125 2.34375 "/></g></g></g><g fill="#ffffff" fill-opacity="1"><g transform="translate(262.041696, 140.692663)"><g><path d="M 0.375 0.625 L 6.46875 -3.046875 L 7.140625 -1.9375 L 4.421875 -0.296875 L 8.65625 0.59375 L 9.484375 1.96875 L 4.703125 0.921875 C 4.722656 1.242188 4.648438 1.578125 4.484375 1.921875 L 3.84375 3.21875 C 3.71875 3.457031 3.65625 3.65625 3.65625 3.8125 C 3.664062 3.96875 3.722656 4.128906 3.828125 4.296875 C 3.941406 4.503906 4.101562 4.65625 4.3125 4.75 L 3.609375 5.53125 C 3.441406 5.46875 3.285156 5.367188 3.140625 5.234375 C 2.992188 5.097656 2.863281 4.9375 2.75 4.75 C 2.363281 4.101562 2.347656 3.425781 2.703125 2.71875 L 3.515625 1.015625 C 3.578125 0.867188 3.617188 0.734375 3.640625 0.609375 C 3.660156 0.492188 3.644531 0.359375 3.59375 0.203125 L 1.046875 1.734375 Z M 0.375 0.625 "/></g></g></g><g fill="#ffffff" fill-opacity="1"><g transform="translate(268.556739, 152.50252)"><g><path d="M -0.03125 -0.09375 L 7.6875 -0.015625 L 8.109375 0.984375 L 2.671875 6.421875 L 2.171875 5.1875 L 3.421875 3.96875 L 2.234375 1.125 L 0.46875 1.125 Z M 3.40625 1.109375 L 4.265625 3.15625 L 6.421875 1.078125 Z M 3.40625 1.109375 "/></g></g></g><g fill="#ffffff" fill-opacity="1"><g transform="translate(273.464205, 165.684705)"><g><path d="M 2.765625 5.84375 L 1.875 6.390625 C 1.738281 6.285156 1.617188 6.144531 1.515625 5.96875 C 1.410156 5.789062 1.328125 5.597656 1.265625 5.390625 C 1.085938 4.660156 1.269531 4.015625 1.8125 3.453125 L 3.078125 2.0625 C 3.222656 1.914062 3.3125 1.78125 3.34375 1.65625 C 3.375 1.53125 3.375 1.398438 3.34375 1.265625 L 3.34375 1.21875 L 0.5 1.9375 L 0.1875 0.71875 L 7.078125 -1.03125 L 7.609375 1.09375 C 7.835938 1.976562 7.828125 2.691406 7.578125 3.234375 C 7.328125 3.773438 6.890625 4.125 6.265625 4.28125 C 5.878906 4.375 5.523438 4.375 5.203125 4.28125 C 4.890625 4.1875 4.613281 4.015625 4.375 3.765625 C 4.132812 3.515625 3.945312 3.210938 3.8125 2.859375 C 3.75 3.066406 3.617188 3.285156 3.421875 3.515625 L 2.765625 4.25 C 2.578125 4.457031 2.460938 4.628906 2.421875 4.765625 C 2.390625 4.910156 2.394531 5.082031 2.4375 5.28125 C 2.5 5.5 2.609375 5.6875 2.765625 5.84375 Z M 6.5625 1.28125 L 6.359375 0.453125 L 4.328125 0.96875 L 4.515625 1.734375 C 4.648438 2.265625 4.828125 2.632812 5.046875 2.84375 C 5.273438 3.050781 5.570312 3.109375 5.9375 3.015625 C 6.601562 2.847656 6.8125 2.269531 6.5625 1.28125 Z M 6.5625 1.28125 "/></g></g></g><g fill="#ffffff" fill-opacity="1"><g transform="translate(101.83707, 238.432748)"><g><path d="M 62.875 -69.234375 C 60.96875 -67.222656 58.800781 -65.742188 56.375 -64.796875 C 66.75 -63.304688 74.632812 -59.625 80.03125 -53.75 C 85.425781 -47.875 88.125 -40.703125 88.125 -32.234375 C 88.125 -21.960938 83.992188 -13.648438 75.734375 -7.296875 C 67.484375 -0.953125 56.632812 2.21875 43.1875 2.21875 C 29.738281 2.21875 19.203125 -1.085938 11.578125 -7.703125 C 3.960938 -14.316406 0.15625 -23.660156 0.15625 -35.734375 C 0.15625 -36.367188 0.15625 -37.003906 0.15625 -37.640625 L 1.90625 -37.953125 C 4.019531 -22.179688 10.582031 -11.960938 21.59375 -7.296875 L 21.59375 -99.71875 C 21.382812 -102.582031 20.300781 -104.9375 18.34375 -106.78125 C 16.382812 -108.632812 14.023438 -109.5625 11.265625 -109.5625 L 9.359375 -109.5625 L 9.359375 -111.15625 L 36.046875 -111.15625 C 45.992188 -111.15625 53.957031 -108.878906 59.9375 -104.328125 C 65.925781 -99.773438 68.921875 -93.816406 68.921875 -86.453125 C 68.921875 -79.097656 66.90625 -73.359375 62.875 -69.234375 Z M 31.921875 -106.078125 L 31.921875 -4.453125 C 35.410156 -3.921875 39.429688 -3.65625 43.984375 -3.65625 C 54.148438 -3.65625 62.0625 -6.378906 67.71875 -11.828125 C 73.382812 -17.285156 76.21875 -24.351562 76.21875 -33.03125 C 76.21875 -37.6875 75.34375 -41.8125 73.59375 -45.40625 C 71.851562 -49.007812 69.660156 -51.816406 67.015625 -53.828125 C 60.023438 -59.234375 50.175781 -61.9375 37.46875 -61.9375 C 37.363281 -61.9375 37.3125 -61.9375 37.3125 -61.9375 L 37.15625 -63.359375 C 37.257812 -63.359375 37.3125 -63.359375 37.3125 -63.359375 C 42.707031 -63.359375 47.335938 -65.128906 51.203125 -68.671875 C 55.066406 -72.222656 57 -77.703125 57 -85.109375 C 57 -99.085938 49.328125 -106.078125 33.984375 -106.078125 Z M 31.921875 -106.078125 "/></g></g></g></svg>